<?xml version="1.0" encoding="UTF-8" standalone="no"?>
<!-- Created with Inkscape (http://www.inkscape.org/) -->

<svg
   width="58mm"
   height="58mm"
   viewBox="0 0 58 58.000001"
   version="1.1"
   id="svg1"
   inkscape:version="1.4 (e7c3feb1, 2024-10-09)"
   sodipodi:docname="cadmise-logo-white-background.svg"
   xmlns:inkscape="http://www.inkscape.org/namespaces/inkscape"
   xmlns:sodipodi="http://sodipodi.sourceforge.net/DTD/sodipodi-0.dtd"
   xmlns="http://www.w3.org/2000/svg"
   xmlns:svg="http://www.w3.org/2000/svg">
  <sodipodi:namedview
     id="namedview1"
     pagecolor="#ffffff"
     bordercolor="#111111"
     borderopacity="1"
     inkscape:showpageshadow="0"
     inkscape:pageopacity="0"
     inkscape:pagecheckerboard="1"
     inkscape:deskcolor="#d1d1d1"
     inkscape:document-units="mm"
     inkscape:zoom="2.5399166"
     inkscape:cx="183.47059"
     inkscape:cy="97.050431"
     inkscape:window-width="1576"
     inkscape:window-height="938"
     inkscape:window-x="0"
     inkscape:window-y="39"
     inkscape:window-maximized="0"
     inkscape:current-layer="layer1" />
  <defs
     id="defs1" />
  <g
     inkscape:label="Calque 1"
     inkscape:groupmode="layer"
     id="layer1"
     transform="translate(1193.5435,12.826554)">
    <rect
       style="fill:#ffffff;stroke-width:0.264583"
       id="rect1"
       width="58"
       height="58"
       x="-1193.5435"
       y="-12.826554"
       rx="8" />
    <g
       id="g2"
       transform="matrix(0.98339946,0,0,0.99429612,-16.813465,23.426839)">
      <g
         id="text3"
         style="font-size:14.1111px;letter-spacing:-0.396875px;word-spacing:0px;stroke-width:0.264583"
         aria-label="cadmise">
        <path
           style="font-family:Giorgio;-inkscape-font-specification:Giorgio"
           d="m -1186.8688,-2.7512284 q -0.508,0.4938885 -1.2277,0.7478883 -0.7055,0.2398887 -1.5804,0.2398887 -1.8345,0 -2.8505,-1.0159992 -1.016,-1.0159992 -1.016,-2.8504423 0,-1.8203319 1.016,-2.8363311 1.016,-1.0301103 2.8505,-1.0301103 1.5099,0 2.4976,0.7478883 l -0.5926,0.7902216 q -0.7197,-0.5503329 -1.905,-0.5503329 -1.4111,0 -2.1449,0.7478883 -0.7338,0.7337772 -0.7338,2.1307761 0,1.4111101 0.7338,2.1448873 0.7338,0.7337772 2.1449,0.7337772 1.3688,0 2.1166,-0.7196661 z m 4.3303,-6.7451059 q 1.8345,0 2.8505,1.0301103 1.016,1.0159992 1.016,2.8363311 v 1.6933321 q 0,0.2398887 -0.1129,0.6208884 -0.1129,0.3668886 -0.5221,0.7196661 -0.3951,0.3386664 -1.1571,0.5926662 -0.762,0.2398887 -2.0744,0.2398887 -1.3123,0 -2.0743,-0.2398887 -0.762,-0.2539998 -1.1712,-0.5926662 -0.3951,-0.3527775 -0.508,-0.7196661 -0.1129,-0.3809997 -0.1129,-0.6208884 0,-0.8607771 0.2681,-1.3546657 0.2681,-0.4938885 0.7197,-0.7337772 0.4515,-0.2539998 1.0583,-0.3245553 0.6209,-0.070556 1.3264,-0.070556 h 3.302 q -0.1975,-1.0159992 -0.9031,-1.552221 -0.7055,-0.5362218 -1.905,-0.5362218 -1.2135,0 -1.9614,0.5785551 l -0.6068,-0.7761105 q 1.0019,-0.7902216 2.5682,-0.7902211 z m 2.8787,4.0639968 h -2.8787 q -0.9454,0 -1.524,0.056444 -0.5644,0.042333 -0.8749,0.1975554 -0.2963,0.1552221 -0.3951,0.4515553 -0.085,0.2963331 -0.085,0.7902216 0,0.3245553 0.254,0.5503329 0.254,0.2257776 0.6632,0.3668886 0.4092,0.141111 0.9172,0.2116665 0.5221,0.056444 1.0442,0.056444 0.5221,0 1.0301,-0.056444 0.5222,-0.070555 0.9314,-0.2116665 0.4092,-0.141111 0.6632,-0.3668886 0.254,-0.2257776 0.254,-0.5503329 z"
           id="path6" />
        <path
           style="font-family:Giorgio;-inkscape-font-specification:Giorgio;letter-spacing:-0.926042px"
           d="m -1177.813,-5.6157818 q 0,-1.834443 1.016,-2.8504422 1.016,-1.0159992 2.8504,-1.0159992 0.9314,0 1.651,0.282222 0.7338,0.2681109 1.2277,0.7761105 v -4.3885523 h 0.9737 v 7.1966612 q 0,1.820332 -1.016,2.8363312 -1.016,1.0159992 -2.8364,1.0159992 -1.8344,0 -2.8504,-1.0159992 -1.016,-1.0159992 -1.016,-2.8363312 z m 0.9878,0 q 0,1.396999 0.7337,2.1448873 0.7338,0.7337772 2.1449,0.7337772 1.397,0 2.1308,-0.7337772 0.7479,-0.7478883 0.7479,-2.1448873 0,-1.41111 -0.7479,-2.1448872 -0.7338,-0.7337772 -2.1308,-0.7337772 -1.4111,0 -2.1449,0.7337772 -0.7337,0.7337772 -0.7337,2.1448872 z m 15.9085,-3.8664414 q 1.4252,0 2.2154,1.0301103 0.8043,1.0159992 0.8043,2.8363311 v 3.7817749 h -0.9736 v -3.7817749 q 0,-0.3951108 -0.071,-0.8889993 -0.071,-0.5079996 -0.2963,-0.9454437 -0.2117,-0.4515552 -0.6209,-0.7478883 -0.3951,-0.2963331 -1.0583,-0.2963331 -0.6632,0 -1.0725,0.2963331 -0.3951,0.2963331 -0.6209,0.7478883 -0.2116,0.4374441 -0.2822,0.9454437 -0.071,0.4938885 -0.071,0.8889993 v 3.7817749 h -0.9878 v -3.7817749 q 0,-0.3951108 -0.071,-0.8889993 -0.071,-0.5079996 -0.2822,-0.9454437 -0.2117,-0.4515552 -0.6209,-0.7478883 -0.3951,-0.2963331 -1.0583,-0.2963331 -0.6632,0 -1.0725,0.2963331 -0.3951,0.2963331 -0.6208,0.7478883 -0.2117,0.4374441 -0.2823,0.9454437 -0.071,0.4938885 -0.071,0.8889993 v 3.7817749 h -0.9878 v -3.7817749 q 0,-1.8203319 0.7902,-2.8363311 0.8044,-1.0301103 2.2437,-1.0301103 0.8749,0 1.5099,0.3951108 0.635,0.3809997 1.016,1.1147769 0.381,-0.7337772 1.016,-1.1147769 0.6491,-0.3951108 1.524,-0.3951108 z"
           id="path7" />
        <path
           style="font-family:Giorgio;-inkscape-font-specification:Giorgio"
           d="m -1155.6762,-1.8340069 h -0.9878 v -7.5071053 h 0.9878 z m 0,-10.9925471 v 1.326443 h -0.9878 v -1.326443 z m 4.0763,6.7309948 q 0.4657,0.098778 0.9455,0.2257776 0.4797,0.1128888 0.8607,0.3527775 0.3951,0.2257776 0.635,0.6067774 0.2399,0.3809997 0.2399,0.9736659 0,1.0159992 -0.7479,1.5945543 -0.7479,0.5785551 -2.032,0.5785551 -1.2982,0 -2.0461,-0.5785551 -0.7479,-0.5785551 -0.7479,-1.5945543 h 0.9878 q 0,0.3668886 0.1552,0.6067773 0.1694,0.2257776 0.4234,0.3668886 0.2681,0.1269999 0.5926,0.1834443 0.3246,0.042333 0.635,0.042333 0.3105,0 0.6209,-0.042333 0.3246,-0.056444 0.5786,-0.1834443 0.2681,-0.141111 0.4374,-0.3668886 0.1694,-0.2398887 0.1694,-0.6067773 0,-0.2539998 -0.085,-0.423333 -0.071,-0.1693332 -0.2822,-0.2963331 -0.2117,-0.141111 -0.5927,-0.2398887 -0.3669,-0.1128888 -0.9596,-0.2398888 -0.4656,-0.098778 -0.9454,-0.2257776 -0.4798,-0.1269999 -0.8749,-0.3527775 -0.381,-0.2398887 -0.6209,-0.6208884 -0.2399,-0.3809997 -0.2399,-0.987777 0,-1.0159992 0.7479,-1.5945543 0.7479,-0.5785551 2.0461,-0.5785551 1.2841,0 2.032,0.5785551 0.7479,0.5785551 0.7479,1.5945543 h -0.9736 q 0,-0.3668886 -0.1694,-0.5926662 -0.1693,-0.2398887 -0.4374,-0.3668886 -0.254,-0.1269999 -0.5786,-0.1693332 -0.3104,-0.056444 -0.6209,-0.056444 -0.3104,0 -0.635,0.056444 -0.3245,0.042333 -0.5926,0.1693332 -0.254,0.1269999 -0.4234,0.3668886 -0.1552,0.2257776 -0.1552,0.5926662 0,0.2398887 0.056,0.4092219 0.071,0.1693332 0.2681,0.3104442 0.2116,0.1269999 0.5785,0.2539998 0.381,0.1269999 1.0019,0.2539998 z m 7.0679,-3.4007751 q 1.8344,0 2.8504,1.0301103 1.016,1.0159992 1.016,2.8363311 v 0.014111 q 0,0.2116665 -0.1552,0.3527775 -0.1411,0.141111 -0.3386,0.141111 h -6.223 q 0.127,1.1571103 0.8466,1.7638876 0.7197,0.6067773 1.9897,0.6067773 1.3688,0 2.1025,-0.705555 l 0.6915,0.705555 q -1.0301,0.987777 -2.794,0.987777 -1.8203,0 -2.8363,-1.0159992 -1.016,-1.0159992 -1.016,-2.8363312 v -0.014111 q 0,-1.8203319 1.016,-2.8363311 1.016,-1.0301103 2.8504,-1.0301103 z m 2.8646,3.386664 q -0.127,-1.1712213 -0.8608,-1.7779986 -0.7197,-0.6208884 -2.0038,-0.6208884 -1.2841,0 -2.0179,0.6208884 -0.7197,0.6067773 -0.8325,1.7779986 z"
           id="path8" />
      </g>
    </g>
  </g>
</svg>
